<?xml version="1.0" standalone="no"?>
<!DOCTYPE svg PUBLIC "-//W3C//DTD SVG 20010904//EN"
 "http://www.w3.org/TR/2001/REC-SVG-20010904/DTD/svg10.dtd">
<svg version="1.0" xmlns="http://www.w3.org/2000/svg"
 width="133.000000pt" height="133.000000pt" viewBox="0 0 133.000000 133.000000"
 preserveAspectRatio="xMidYMid meet">
<metadata>
Created by potrace 1.14, written by Peter Selinger 2001-2017
</metadata>
<g transform="translate(0.000000,133.000000) scale(0.100000,-0.100000)"
fill="#000000" stroke="none">
<path d="M14 1136 c-5 -14 209 -623 226 -640 11 -11 238 -12 249 0 8 9 33 75
37 101 3 17 -21 23 -96 22 -36 0 -70 0 -77 0 -6 1 -21 29 -32 63 -18 54 -19
65 -7 73 8 6 70 10 145 10 l131 -1 19 51 c10 27 16 55 14 62 -4 10 -50 13
-192 13 l-187 0 -18 55 c-9 30 -14 60 -11 65 4 6 96 10 239 10 l232 0 18 54
c10 30 15 59 12 65 -5 8 -110 11 -352 11 -289 0 -346 -2 -350 -14z"/>
<path d="M874 1142 c-6 -4 -55 -128 -109 -277 -54 -148 -105 -289 -114 -312
-11 -33 -12 -46 -4 -54 15 -15 440 -17 452 -3 4 5 24 56 45 114 21 58 50 139
66 180 35 93 30 102 -53 98 l-61 -3 -17 -45 c-10 -25 -30 -79 -45 -120 -36
-99 -46 -107 -125 -104 -35 1 -69 2 -75 3 -9 1 118 372 133 391 3 3 77 7 166
10 l161 5 19 49 c10 27 16 55 13 63 -4 10 -51 13 -223 13 -120 0 -223 -4 -229
-8z"/>
<path d="M385 405 c-50 -21 -70 -51 -70 -105 0 -40 5 -54 28 -78 75 -78 200
-27 199 79 -1 83 -82 137 -157 104z"/>
<path d="M861 406 c-97 -32 -102 -167 -7 -212 30 -15 39 -15 76 -3 55 18 85
57 84 109 -3 83 -74 133 -153 106z"/>
</g>
</svg>
